<svg width="24" height="24" viewBox="0 0 24 24" fill="none" xmlns="http://www.w3.org/2000/svg">
<path d="M17 20.25H7C4.99464 20.25 4.04182 19.9812 3.53033 19.4697C3.01884 18.9582 2.75 18.0054 2.75 16V8C2.75 5.99464 3.01884 5.04182 3.53033 4.53033C4.04182 4.01884 4.99464 3.75 7 3.75H17C19.0054 3.75 19.9582 4.01884 20.4697 4.53033C20.9812 5.04182 21.25 5.99464 21.25 8V16C21.25 18.0054 20.9812 18.9582 20.4697 19.4697C19.9582 19.9812 19.0054 20.25 17 20.25Z" stroke="#A6ABC8" stroke-width="1.5" stroke-linecap="round" stroke-linejoin="round"/>
<path d="M14 8H18" stroke="#A6ABC8" stroke-width="1.2" stroke-linecap="round" stroke-linejoin="round"/>
<path d="M15 12H18" stroke="#A6ABC8" stroke-width="1.2" stroke-linecap="round" stroke-linejoin="round"/>
<path d="M17 16H18" stroke="#A6ABC8" stroke-width="1.2" stroke-linecap="round" stroke-linejoin="round"/>
<path d="M9.49994 11.29C10.4996 11.29 11.3099 10.4796 11.3099 9.48001C11.3099 8.48038 10.4996 7.67001 9.49994 7.67001C8.50031 7.67001 7.68994 8.48038 7.68994 9.48001C7.68994 10.4796 8.50031 11.29 9.49994 11.29Z" stroke="#A6ABC8" stroke-width="1.5" stroke-linecap="round" stroke-linejoin="round"/>
<path d="M13 16.33C12.86 14.88 11.71 13.74 10.26 13.61C9.76 13.56 9.25 13.56 8.74 13.61C7.29 13.75 6.14 14.88 6 16.33" stroke="#A6ABC8" stroke-width="1.5" stroke-linecap="round" stroke-linejoin="round"/>
</svg>
