<svg width="20" height="20" viewBox="0 0 20 20" fill="none" xmlns="http://www.w3.org/2000/svg">
<path d="M18.05 8.7L17.2334 12.1833C16.5334 15.1917 15.15 16.4083 12.55 16.1583C12.1334 16.125 11.6834 16.05 11.2 15.9333L9.80002 15.6C6.32502 14.775 5.25002 13.0583 6.06669 9.575L6.88336 6.08334C7.05002 5.375 7.25002 4.75833 7.50002 4.25C8.47502 2.23333 10.1334 1.69167 12.9167 2.35L14.3084 2.675C17.8 3.49167 18.8667 5.21667 18.05 8.7Z" stroke="#B4A9A8" stroke-width="1.5" stroke-linecap="round" stroke-linejoin="round"/>
<path d="M12.55 16.1583C12.0334 16.5083 11.3834 16.8 10.5917 17.0583L9.27502 17.4917C5.96669 18.5583 4.22502 17.6667 3.15002 14.3583L2.08336 11.0667C1.01669 7.75833 1.90002 6.00833 5.20836 4.94167L6.52502 4.50833C6.86669 4.4 7.19169 4.30833 7.50002 4.25C7.25002 4.75833 7.05002 5.375 6.88336 6.08333L6.06669 9.575C5.25002 13.0583 6.32502 14.775 9.80002 15.6L11.2 15.9333C11.6834 16.05 12.1334 16.125 12.55 16.1583Z" stroke="#B4A9A8" stroke-width="1.5" stroke-linecap="round" stroke-linejoin="round"/>
<path d="M10.5334 7.10834L14.575 8.13334" stroke="#B4A9A8" stroke-width="1.5" stroke-linecap="round" stroke-linejoin="round"/>
<path d="M9.71669 10.3333L12.1334 10.95" stroke="#B4A9A8" stroke-width="1.5" stroke-linecap="round" stroke-linejoin="round"/>
</svg>
