<svg width="26" height="11" viewBox="0 0 26 11" fill="none" xmlns="http://www.w3.org/2000/svg">
<path opacity="0.35" fill-rule="evenodd" clip-rule="evenodd" d="M2.45283 0H21.0943C22.449 0 23.5472 1.07062 23.5472 2.3913V8.6087C23.5472 9.92938 22.449 11 21.0943 11H2.45283C1.09817 11 0 9.92938 0 8.6087V2.3913C0 1.07062 1.09817 0 2.45283 0ZM2.45314 0.956522C1.64035 0.956522 0.981445 1.5989 0.981445 2.3913V8.6087C0.981445 9.4011 1.64035 10.0435 2.45314 10.0435H21.0947C21.9074 10.0435 22.5664 9.4011 22.5664 8.6087V2.3913C22.5664 1.5989 21.9074 0.956522 21.0947 0.956522H2.45314Z" fill="black"/>
<path opacity="0.4" fill-rule="evenodd" clip-rule="evenodd" d="M24.5273 3.15633C25.401 3.59172 25.999 4.47774 25.999 5.49995C25.999 6.52216 25.401 7.40818 24.5273 7.84357V3.15633Z" fill="black"/>
<path fill-rule="evenodd" clip-rule="evenodd" d="M2.15 2H4.85C4.93284 2 5 2.41787 5 2.93333V8.06667C5 8.58213 4.93284 9 4.85 9H2.15C2.06716 9 2 8.58213 2 8.06667V2.93333C2 2.41787 2.06716 2 2.15 2Z" fill="#E71A1A"/>
</svg>
