<svg width="26" height="11" viewBox="0 0 26 11" fill="none" xmlns="http://www.w3.org/2000/svg">
<path opacity="0.35" fill-rule="evenodd" clip-rule="evenodd" d="M2.45283 0H21.0943C22.449 0 23.5472 1.07062 23.5472 2.3913V8.6087C23.5472 9.92938 22.449 11 21.0943 11H2.45283C1.09817 11 0 9.92938 0 8.6087V2.3913C0 1.07062 1.09817 0 2.45283 0ZM2.45314 0.956522C1.64035 0.956522 0.981445 1.5989 0.981445 2.3913V8.6087C0.981445 9.4011 1.64035 10.0435 2.45314 10.0435H21.0947C21.9074 10.0435 22.5664 9.4011 22.5664 8.6087V2.3913C22.5664 1.5989 21.9074 0.956522 21.0947 0.956522H2.45314Z" fill="black"/>
<path opacity="0.4" fill-rule="evenodd" clip-rule="evenodd" d="M24.5273 3.15634C25.401 3.59173 25.999 4.47775 25.999 5.49996C25.999 6.52217 25.401 7.40819 24.5273 7.84358V3.15634Z" fill="black"/>
<path fill-rule="evenodd" clip-rule="evenodd" d="M2.94207 1.91304H20.6024C21.1443 1.91304 21.5836 2.34129 21.5836 2.86956V8.13043C21.5836 8.6587 21.1443 9.08695 20.6024 9.08695H2.94207C2.40021 9.08695 1.96094 8.6587 1.96094 8.13043V2.86956C1.96094 2.34129 2.40021 1.91304 2.94207 1.91304Z" fill="#0DA526"/>
</svg>
