<svg width="21" height="20" viewBox="0 0 21 20" fill="none" xmlns="http://www.w3.org/2000/svg">
<path d="M7.42583 18.3333H14.054C17.3846 18.3333 17.9811 16.9917 18.1551 15.3583L18.7765 8.69167C19.0002 6.65833 18.4202 5 14.8825 5H6.59731C3.05955 5 2.47959 6.65833 2.70329 8.69167L3.32467 15.3583C3.49866 16.9917 4.09519 18.3333 7.42583 18.3333Z" stroke="#EC6625" stroke-width="1.5" stroke-miterlimit="10" stroke-linecap="round" stroke-linejoin="round"/>
<path d="M7.42578 5.00001V4.33334C7.42578 2.85834 7.42578 1.66667 10.077 1.66667H11.4027C14.0539 1.66667 14.0539 2.85834 14.0539 4.33334V5.00001" stroke="#EC6625" stroke-width="1.5" stroke-miterlimit="10" stroke-linecap="round" stroke-linejoin="round"/>
<path d="M12.3969 10.8333V11.6667C12.3969 11.675 12.3969 11.675 12.3969 11.6833C12.3969 12.5917 12.3886 13.3333 10.7399 13.3333C9.0994 13.3333 9.08282 12.6 9.08282 11.6917V10.8333C9.08282 10 9.08282 10 9.91134 10H11.5684C12.3969 10 12.3969 10 12.3969 10.8333Z" stroke="#EC6625" stroke-width="1.5" stroke-miterlimit="10" stroke-linecap="round" stroke-linejoin="round"/>
<path d="M18.7351 9.16667C16.8212 10.5667 14.6339 11.4 12.3969 11.6833" stroke="#EC6625" stroke-width="1.5" stroke-miterlimit="10" stroke-linecap="round" stroke-linejoin="round"/>
<path d="M2.96838 9.39166C4.83255 10.675 6.93698 11.45 9.08283 11.6917" stroke="#EC6625" stroke-width="1.5" stroke-miterlimit="10" stroke-linecap="round" stroke-linejoin="round"/>
</svg>
