<svg width="21" height="20" viewBox="0 0 21 20" fill="none" xmlns="http://www.w3.org/2000/svg">
<path d="M7.54143 18.3333H14.1696C17.5002 18.3333 18.0967 16.9917 18.2707 15.3583L18.8921 8.69167C19.1158 6.65833 18.5358 5 14.9981 5H6.71291C3.17515 5 2.59519 6.65833 2.81889 8.69167L3.44027 15.3583C3.61426 16.9917 4.21079 18.3333 7.54143 18.3333Z" stroke="#B4A9A8" stroke-width="1.5" stroke-miterlimit="10" stroke-linecap="round" stroke-linejoin="round"/>
<path d="M7.54144 5.00002V4.33335C7.54144 2.85835 7.54144 1.66669 10.1927 1.66669H11.5183C14.1696 1.66669 14.1696 2.85835 14.1696 4.33335V5.00002" stroke="#B4A9A8" stroke-width="1.5" stroke-miterlimit="10" stroke-linecap="round" stroke-linejoin="round"/>
<path d="M12.5125 10.8333V11.6667C12.5125 11.675 12.5125 11.675 12.5125 11.6833C12.5125 12.5917 12.5042 13.3333 10.8555 13.3333C9.21503 13.3333 9.19846 12.6 9.19846 11.6917V10.8333C9.19846 10 9.19846 10 10.027 10H11.684C12.5125 10 12.5125 10 12.5125 10.8333Z" stroke="#B4A9A8" stroke-width="1.5" stroke-miterlimit="10" stroke-linecap="round" stroke-linejoin="round"/>
<path d="M18.8507 9.16669C16.9368 10.5667 14.7495 11.4 12.5125 11.6834" stroke="#B4A9A8" stroke-width="1.5" stroke-miterlimit="10" stroke-linecap="round" stroke-linejoin="round"/>
<path d="M3.08401 9.39166C4.94818 10.675 7.05261 11.45 9.19847 11.6917" stroke="#B4A9A8" stroke-width="1.5" stroke-miterlimit="10" stroke-linecap="round" stroke-linejoin="round"/>
</svg>
