<svg width="14" height="14" viewBox="0 0 14 14" fill="none" xmlns="http://www.w3.org/2000/svg">
<g id="call">
<g id="call_2">
<path id="Vector" d="M13.0001 10.798C13.0001 11.014 12.952 11.236 12.8499 11.452C12.7477 11.668 12.6155 11.872 12.4413 12.064C12.1468 12.388 11.8224 12.622 11.4558 12.772C11.0953 12.922 10.7047 13 10.284 13C9.67113 13 9.01615 12.856 8.32511 12.562C7.63407 12.268 6.94304 11.872 6.25801 11.374C5.56697 10.87 4.91199 10.312 4.28705 9.694C3.66812 9.07 3.10929 8.416 2.61054 7.732C2.1178 7.048 1.7212 6.364 1.43277 5.686C1.14434 5.002 1.00012 4.348 1.00012 3.724C1.00012 3.316 1.07223 2.926 1.21645 2.566C1.36066 2.2 1.58901 1.864 1.90748 1.564C2.29206 1.186 2.71269 1 3.15736 1C3.32561 1 3.49386 1.036 3.64409 1.108C3.80032 1.18 3.93853 1.288 4.04669 1.444L5.44078 3.406C5.54895 3.556 5.62706 3.694 5.68114 3.826C5.73522 3.952 5.76527 4.078 5.76527 4.192C5.76527 4.336 5.72321 4.48 5.63908 4.618C5.56096 4.756 5.44679 4.9 5.30258 5.044L4.84589 5.518C4.77979 5.584 4.74975 5.662 4.74975 5.758C4.74975 5.806 4.75576 5.848 4.76777 5.896C4.7858 5.944 4.80383 5.98 4.81585 6.016C4.92401 6.214 5.11029 6.472 5.37468 6.784C5.64509 7.096 5.93352 7.414 6.24599 7.732C6.57048 8.05 6.88295 8.344 7.20142 8.614C7.51389 8.878 7.77228 9.058 7.97659 9.166C8.00663 9.178 8.04269 9.196 8.08475 9.214C8.13282 9.232 8.18089 9.238 8.23497 9.238C8.33713 9.238 8.41524 9.202 8.48134 9.136L8.93803 8.686C9.08825 8.536 9.23247 8.422 9.37068 8.35C9.50889 8.266 9.64709 8.224 9.79732 8.224C9.91149 8.224 10.0317 8.248 10.1639 8.302C10.2961 8.356 10.4343 8.434 10.5845 8.536L12.5735 9.946C12.7297 10.054 12.8379 10.18 12.904 10.33C12.9641 10.48 13.0001 10.63 13.0001 10.798Z" stroke="#6C6C6C" stroke-miterlimit="10"/>
</g>
</g>
</svg>
