<svg width="35" height="35" viewBox="0 0 35 35" fill="none" xmlns="http://www.w3.org/2000/svg">
<circle cx="17.5" cy="17.5" r="16.75" fill="white" stroke="#0DA526" stroke-width="1.5"/>
<path d="M14.3368 20.6407C16.5191 22.8195 19.1696 24.5007 21.3368 24.5007C22.3109 24.5007 23.1642 24.1615 23.8513 23.4076C24.2515 22.9628 24.5007 22.4426 24.5007 21.9299C24.5007 21.553 24.3573 21.1911 24.0024 20.9348L21.6841 19.2913C21.3292 19.05 21.0347 18.9294 20.7629 18.9294C20.4231 18.9294 20.1135 19.1254 19.7661 19.4647L19.23 19.9924C19.1469 20.0753 19.0412 20.113 18.943 20.113C18.8298 20.113 18.7165 20.0678 18.641 20.0301C18.1728 19.7813 17.3724 19.0952 16.6248 18.3564C15.8848 17.6176 15.1976 16.8185 14.956 16.351C14.9182 16.2681 14.8729 16.1626 14.8729 16.0495C14.8729 15.9515 14.9031 15.8535 14.9862 15.7705L15.5223 15.2202C15.8546 14.8734 16.0584 14.5718 16.0584 14.225C16.0584 13.9536 15.9301 13.6596 15.6809 13.3053L14.0574 11.0209C13.7931 10.6591 13.4231 10.5007 13.0153 10.5007C12.5169 10.5007 12.0034 10.7269 11.5579 11.1566C10.8254 11.8578 10.5007 12.7248 10.5007 13.6822C10.5007 15.8459 12.1545 18.4695 14.3368 20.6407Z" fill="#0DA526"/>
</svg>
