<svg width="30" height="30" viewBox="0 0 30 30" fill="none" xmlns="http://www.w3.org/2000/svg">
<circle cx="15" cy="15" r="14.5" fill="white" stroke="#575757"/>
<path d="M12.2881 17.6914C14.1587 19.559 16.4305 21 18.2881 21C19.1231 21 19.8545 20.7092 20.4435 20.063C20.7865 19.6817 21.0001 19.2359 21.0001 18.7964C21.0001 18.4733 20.8771 18.1632 20.5729 17.9435L18.5859 16.5347C18.2817 16.3279 18.0293 16.2246 17.7962 16.2246C17.505 16.2246 17.2396 16.3926 16.9419 16.6834L16.4823 17.1357C16.4111 17.2068 16.3205 17.2391 16.2364 17.2391C16.1393 17.2391 16.0422 17.2003 15.9775 17.168C15.5762 16.9548 14.8901 16.3667 14.2493 15.7334C13.615 15.1002 13.026 14.4152 12.8189 14.0145C12.7865 13.9435 12.7477 13.853 12.7477 13.7561C12.7477 13.672 12.7736 13.588 12.8448 13.517L13.3043 13.0452C13.5891 12.748 13.7639 12.4895 13.7639 12.1922C13.7639 11.9596 13.6538 11.7076 13.4403 11.4039L12.0487 9.44588C11.8221 9.1357 11.505 9 11.1555 9C10.7283 9 10.2881 9.19386 9.90627 9.56219C9.27844 10.1632 9.00012 10.9063 9.00012 11.727C9.00012 13.5816 10.4176 15.8304 12.2881 17.6914Z" fill="#575757"/>
</svg>
