<svg width="18" height="18" viewBox="0 0 18 18" fill="none" xmlns="http://www.w3.org/2000/svg">
<path d="M0 3.19363C0 3.67465 0.389955 4.0646 0.870979 4.0646C1.352 4.0646 1.74196 3.67465 1.74196 3.19363H0ZM2.14841 1.90342L1.81687 1.098C1.80622 1.10239 1.79565 1.10699 1.78517 1.1118L2.14841 1.90342ZM5.55452 1.04753L5.6431 1.91399C5.64925 1.91337 5.65539 1.91267 5.66154 1.91192L5.55452 1.04753ZM8.45779 0.871015L8.45628 1.74199H8.45779V0.871015ZM9.54128 0.871015V1.74199H9.54279L9.54128 0.871015ZM12.4445 1.04753L12.3376 1.91192C12.3437 1.91268 12.3499 1.91338 12.3561 1.91401L12.4445 1.04753ZM15.8518 1.90342L16.2151 1.1118C16.2046 1.10698 16.1939 1.10238 16.1834 1.09799L15.8518 1.90342ZM16.2583 3.19363C16.2583 3.67465 16.6482 4.0646 17.1293 4.0646C17.6103 4.0646 18.0002 3.67465 18.0002 3.19363H16.2583ZM1.74196 3.19363C1.74196 2.7126 1.352 2.32265 0.870979 2.32265C0.389955 2.32265 0 2.7126 0 3.19363H1.74196ZM3.09372 4.83571L2.83896 5.6686C2.84721 5.67112 2.8555 5.67352 2.86381 5.6758L3.09372 4.83571ZM8.45779 5.51623V4.64516L8.4449 4.64535L8.45779 5.51623ZM9.54128 5.51623L9.55418 4.64526H9.54128V5.51623ZM14.9065 4.83571L15.1365 5.6758C15.1447 5.67352 15.1531 5.67112 15.1613 5.6686L14.9065 4.83571ZM18.0002 3.19363C18.0002 2.7126 17.6103 2.32265 17.1293 2.32265C16.6482 2.32265 16.2583 2.7126 16.2583 3.19363H18.0002ZM1.74196 3.19363C1.74196 2.7126 1.352 2.32265 0.870979 2.32265C0.389955 2.32265 0 2.7126 0 3.19363H1.74196ZM0 9.00012C0 9.48113 0.389955 9.8711 0.870979 9.8711C1.352 9.8711 1.74196 9.48113 1.74196 9.00012H0ZM18.0002 3.19363C18.0002 2.7126 17.6103 2.32265 17.1293 2.32265C16.6482 2.32265 16.2583 2.7126 16.2583 3.19363H18.0002ZM16.2583 9.00012C16.2583 9.48113 16.6482 9.8711 17.1293 9.8711C17.6103 9.8711 18.0002 9.48113 18.0002 9.00012H16.2583ZM1.74196 9.00012C1.74196 8.5191 1.352 8.12914 0.870979 8.12914C0.389955 8.12914 0 8.5191 0 9.00012H1.74196ZM3.09372 10.6422L2.83896 11.4751C2.84721 11.4776 2.8555 11.4801 2.86381 11.4823L3.09372 10.6422ZM8.45779 11.3227V10.4516L8.4449 10.4519L8.45779 11.3227ZM9.54128 11.3227L9.55418 10.4517H9.54128V11.3227ZM14.9065 10.6422L15.1365 11.4823C15.1447 11.4801 15.1531 11.4776 15.1613 11.4751L14.9065 10.6422ZM18.0002 9.00012C18.0002 8.5191 17.6103 8.12914 17.1293 8.12914C16.6482 8.12914 16.2583 8.5191 16.2583 9.00012H18.0002ZM1.74196 9.00012C1.74196 8.5191 1.352 8.12914 0.870979 8.12914C0.389955 8.12914 0 8.5191 0 9.00012H1.74196ZM3.09372 16.4487L2.83896 17.2816C2.84721 17.2842 2.8555 17.2866 2.86381 17.2888L3.09372 16.4487ZM8.45779 17.1293V16.2582L8.4449 16.2584L8.45779 17.1293ZM9.54128 17.1293L9.55418 16.2583H9.54128V17.1293ZM14.9065 16.4487L15.1365 17.2888C15.1447 17.2866 15.1531 17.2842 15.1613 17.2816L14.9065 16.4487ZM18.0002 9.00012C18.0002 8.5191 17.6103 8.12914 17.1293 8.12914C16.6482 8.12914 16.2583 8.5191 16.2583 9.00012H18.0002ZM1.74196 3.19363C1.74196 3.26148 1.70497 3.24257 1.81539 3.1314C1.93019 3.01583 2.14785 2.86197 2.51166 2.69503L1.78517 1.1118C1.31633 1.32693 0.895262 1.58591 0.579515 1.9038C0.259378 2.22608 0 2.66125 0 3.19363H1.74196ZM2.47996 2.70883C3.49052 2.29284 4.55592 2.02513 5.6431 1.91399L5.46595 0.181072C4.21176 0.309268 2.9827 0.618105 1.81687 1.098L2.47996 2.70883ZM5.66154 1.91192C6.58867 1.79713 7.52212 1.74038 8.45628 1.74199L8.4593 3.57102e-05C7.45256 -0.00169463 6.44665 0.0594598 5.44751 0.18315L5.66154 1.91192ZM8.45779 1.74199H9.54128V3.57102e-05H8.45779V1.74199ZM9.54279 1.74199C10.4769 1.74038 11.4104 1.79713 12.3376 1.91192L12.5515 0.18315C11.5524 0.0594598 10.5465 -0.00169463 9.53977 3.57102e-05L9.54279 1.74199ZM12.3561 1.91401C13.4436 2.02504 14.5093 2.29274 15.5203 2.70884L16.1834 1.09799C15.0171 0.617978 13.7876 0.30914 12.533 0.18106L12.3561 1.91401ZM15.4886 2.69503C15.8524 2.86197 16.07 3.01583 16.1849 3.1314C16.2953 3.24257 16.2583 3.26148 16.2583 3.19363H18.0002C18.0002 2.66125 17.7408 2.22608 17.4207 1.9038C17.105 1.58591 16.6839 1.32693 16.2151 1.1118L15.4886 2.69503ZM0 3.19363C0 3.9062 0.459877 4.43461 0.930774 4.78262C1.41877 5.14326 2.07785 5.43579 2.83896 5.6686L3.34847 4.00282C2.68582 3.80013 2.23354 3.57938 1.9661 3.38172C1.68157 3.17143 1.74196 3.09654 1.74196 3.19363H0ZM2.86381 5.6758C4.68997 6.17554 6.57753 6.41502 8.47068 6.38712L8.4449 4.64535C6.71583 4.67083 4.99165 4.4521 3.32362 3.99562L2.86381 5.6758ZM8.45779 6.38721H9.54128V4.64526L8.45779 4.64516V6.38721ZM9.52839 6.38712C11.4219 6.41513 13.3098 6.17566 15.1365 5.6758L14.6766 3.99562C13.0082 4.4522 11.2837 4.67084 9.55418 4.64526L9.52839 6.38712ZM15.1613 5.6686C15.9221 5.43589 16.5812 5.14369 17.0693 4.78319C17.5406 4.43503 18.0002 3.90659 18.0002 3.19363H16.2583C16.2583 3.09732 16.3184 3.17218 16.0343 3.38202C15.7669 3.57953 15.3147 3.80005 14.6517 4.00282L15.1613 5.6686ZM0 3.19363V9.00012H1.74196V3.19363H0ZM16.2583 3.19363V9.00012H18.0002V3.19363H16.2583ZM0 9.00012C0 9.71269 0.459877 10.2411 0.930774 10.5891C1.41877 10.9498 2.07785 11.2424 2.83896 11.4751L3.34847 9.80931C2.68582 9.60667 2.23354 9.3859 1.9661 9.18825C1.68157 8.97794 1.74196 8.90303 1.74196 9.00012H0ZM2.86381 11.4823C4.68997 11.9821 6.57753 12.2216 8.47068 12.1936L8.4449 10.4519C6.71583 10.4774 4.99165 10.2586 3.32362 9.80212L2.86381 11.4823ZM8.45779 12.1937H9.54128V10.4517L8.45779 10.4516V12.1937ZM9.52839 12.1936C11.4219 12.2217 13.3098 11.9822 15.1365 11.4823L14.6766 9.80212C13.0082 10.2587 11.2837 10.4773 9.55418 10.4517L9.52839 12.1936ZM15.1613 11.4751C15.9221 11.2424 16.5812 10.9502 17.0693 10.5897C17.5406 10.2416 18.0002 9.71316 18.0002 9.00012H16.2583C16.2583 8.90384 16.3184 8.97875 16.0343 9.1886C15.7669 9.38602 15.3147 9.60655 14.6517 9.80931L15.1613 11.4751ZM0 9.00012V14.8066H1.74196V9.00012H0ZM0 14.8066C0 15.5192 0.459877 16.0476 0.930774 16.3957C1.41877 16.7564 2.07785 17.0489 2.83896 17.2816L3.34847 15.6158C2.68582 15.4132 2.23354 15.1924 1.9661 14.9948C1.68157 14.7845 1.74196 14.7096 1.74196 14.8066H0ZM2.86381 17.2888C4.68997 17.7886 6.57753 18.0281 8.47068 18.0001L8.4449 16.2584C6.71583 16.2839 4.99165 16.0651 3.32362 15.6086L2.86381 17.2888ZM8.45779 18.0002H9.54128V16.2583L8.45779 16.2582V18.0002ZM9.52839 18.0001C11.4219 18.0282 13.3098 17.7888 15.1365 17.2888L14.6766 15.6086C13.0082 16.0653 11.2837 16.2838 9.55418 16.2583L9.52839 18.0001ZM15.1613 17.2816C15.9224 17.0489 16.5815 16.7564 17.0694 16.3957C17.5404 16.0476 18.0002 15.5192 18.0002 14.8066H16.2583C16.2583 14.7096 16.3187 14.7845 16.0341 14.9948C15.7667 15.1924 15.3144 15.4132 14.6517 15.6158L15.1613 17.2816ZM18.0002 14.8066V9.00012H16.2583V14.8066H18.0002Z" fill="white"/>
</svg>
