<svg width="21" height="16" viewBox="0 0 21 16" fill="none" xmlns="http://www.w3.org/2000/svg">
<path fill-rule="evenodd" clip-rule="evenodd" d="M12.1398 11.9115C12.8446 12.6724 13.0076 13.8363 12.4644 14.7846C11.7987 15.9468 10.3242 16.3451 9.17104 15.674C8.01792 15.003 7.62282 13.5169 8.28858 12.3547C8.8301 11.4094 9.90666 10.9695 10.9101 11.1993L13.9607 5.77792C14.038 5.64058 14.2111 5.59239 14.3474 5.67028L15.0875 6.09336C15.2238 6.17124 15.2716 6.34571 15.1943 6.48305L12.1398 11.9115ZM10.8729 12.7032C11.3477 12.9795 11.5104 13.5914 11.2362 14.0699C10.9621 14.5485 10.355 14.7125 9.88014 14.4362C9.40532 14.1599 9.24264 13.5479 9.51677 13.0694C9.79091 12.5908 10.3981 12.4269 10.8729 12.7032Z" fill="white"/>
<path d="M0.155637 12.0815C0.205163 12.3641 0.266469 12.6449 0.339495 12.9232C0.419627 13.2285 0.74138 13.3925 1.03938 13.2948L7.67362 11.1202C7.9715 11.0225 8.12612 10.6981 8.11122 10.3828C8.10434 10.2371 8.11221 10.0905 8.13501 9.94545C8.16366 9.76311 8.21546 9.5859 8.28867 9.41805L8.28988 9.41528C8.35063 9.27652 8.42603 9.14417 8.51509 9.02061C8.71242 8.74688 8.97122 8.5241 9.27034 8.37049C9.56946 8.21688 9.9004 8.1368 10.2361 8.1368C10.477 8.1368 10.7154 8.17802 10.9413 8.25805C11.0891 8.31038 11.2595 8.25645 11.3306 8.11577L11.7169 7.35163C11.7881 7.21095 11.7329 7.03765 11.5881 6.97745C11.1602 6.79952 10.7009 6.70743 10.2361 6.70743C9.67659 6.70743 9.12502 6.8409 8.62649 7.09691C8.12796 7.35293 7.69663 7.72423 7.36775 8.18045C7.03888 8.63667 6.82181 9.16487 6.73428 9.72185C6.72309 9.79304 6.71406 9.86444 6.70718 9.93596L1.51979 11.6347C1.38256 10.7328 1.38393 9.81203 1.52645 8.90513C1.74351 7.52381 2.28186 6.21389 3.09746 5.08246C3.91307 3.95102 4.98278 3.0302 6.21914 2.39528C7.45549 1.76036 8.82338 1.42937 10.211 1.42937C11.5986 1.42937 12.9665 1.76036 14.2028 2.39528C15.4392 3.0302 16.5089 3.95102 17.3245 5.08245C18.1401 6.21389 18.6784 7.52381 18.8955 8.90512C19.038 9.81203 19.0394 10.7328 18.9022 11.6347L14.6841 10.2534C14.5525 10.2103 14.4092 10.2693 14.3451 10.393L13.9456 11.1639C13.8644 11.3207 13.9425 11.5135 14.1094 11.5681L19.3827 13.295C19.6806 13.3926 20.0023 13.2286 20.0824 12.9233C20.1555 12.645 20.2168 12.3641 20.2663 12.0815C20.4627 10.9609 20.4739 9.81194 20.2962 8.68152C20.0442 7.07742 19.419 5.55622 18.4718 4.24229C17.5247 2.92837 16.2824 1.85903 14.8467 1.1217C13.4109 0.384376 11.8224 -8.44155e-08 10.211 0C8.59958 1.21925e-07 7.01106 0.384377 5.57529 1.1217C4.13952 1.85903 2.89728 2.92837 1.95012 4.24229C1.00297 5.55622 0.377793 7.07742 0.125715 8.68152C-0.0519252 9.81194 -0.0407288 10.9609 0.155637 12.0815Z" fill="white"/>
</svg>
