<svg width="21" height="20" viewBox="0 0 21 20" fill="none" xmlns="http://www.w3.org/2000/svg">
<path fill-rule="evenodd" clip-rule="evenodd" d="M4.74383 4.06452C5.11793 4.06452 5.42124 3.77333 5.42124 3.41419V0.650323C5.42124 0.291182 5.11793 0 4.74383 0C4.36972 0 4.06641 0.291182 4.06641 0.650323V3.41419C4.06641 3.77333 4.36972 4.06452 4.74383 4.06452Z" fill="#C9C9C9"/>
<mask id="mask0_1209_52963" style="mask-type:luminance" maskUnits="userSpaceOnUse" x="0" y="0" width="21" height="20">
<path fill-rule="evenodd" clip-rule="evenodd" d="M0 19.6452H21V0H0V19.6452Z" fill="white"/>
</mask>
<g mask="url(#mask0_1209_52963)">
<path fill-rule="evenodd" clip-rule="evenodd" d="M6.09277 2.7097H14.8992V1.35486H6.09277V2.7097Z" fill="#C9C9C9"/>
<path fill-rule="evenodd" clip-rule="evenodd" d="M18.617 18.4359H2.38299C1.72604 18.4359 1.1915 17.8934 1.1915 17.2266V6.11639H19.8085V17.2266C19.8085 17.8934 19.274 18.4359 18.617 18.4359ZM18.617 1.35486H17.7979V2.56414H18.617C19.274 2.56414 19.8085 3.10665 19.8085 3.77341V4.90711H1.19149V3.77341C1.19149 3.10665 1.72602 2.56414 2.38298 2.56414H3.20213V1.35486H2.38298C1.06906 1.35486 0 2.43988 0 3.77341V17.2266C0 18.5602 1.06906 19.6452 2.38298 19.6452H18.617C19.9309 19.6452 21 18.5602 21 17.2266V3.77341C21 2.43988 19.9309 1.35486 18.617 1.35486Z" fill="#C9C9C9"/>
<path fill-rule="evenodd" clip-rule="evenodd" d="M16.2575 4.06452C16.6316 4.06452 16.9349 3.77333 16.9349 3.41419V0.650323C16.9349 0.291182 16.6316 0 16.2575 0C15.8834 0 15.5801 0.291182 15.5801 0.650323V3.41419C15.5801 3.77333 15.8834 4.06452 16.2575 4.06452Z" fill="#C9C9C9"/>
<path fill-rule="evenodd" clip-rule="evenodd" d="M3.49043 10.7955H5.99305V8.84969H3.49043V10.7955ZM6.07065 8.12903H3.41184C3.02433 8.12903 2.70898 8.42003 2.70898 8.77762V10.8675C2.70898 11.2251 3.02433 11.5161 3.41184 11.5161H6.07065C6.45815 11.5161 6.7735 11.2251 6.7735 10.8675V8.77762C6.7735 8.42003 6.45815 8.12903 6.07065 8.12903Z" fill="#C9C9C9"/>
<path fill-rule="evenodd" clip-rule="evenodd" d="M8.91123 10.7955H11.4139V8.84969H8.91123V10.7955ZM11.4915 8.12903H8.83274C8.44523 8.12903 8.12988 8.42003 8.12988 8.77762V10.8675C8.12988 11.2251 8.44523 11.5161 8.83274 11.5161H11.4915C11.8791 11.5161 12.1944 11.2251 12.1944 10.8675V8.77762C12.1944 8.42003 11.8791 8.12903 11.4915 8.12903Z" fill="#C9C9C9"/>
<path fill-rule="evenodd" clip-rule="evenodd" d="M15.0069 10.7955H17.5096V8.84969H15.0069V10.7955ZM17.5873 8.12903H14.9284C14.5409 8.12903 14.2256 8.42003 14.2256 8.77762V10.8675C14.2256 11.2251 14.5409 11.5161 14.9284 11.5161H17.5873C17.9748 11.5161 18.2901 11.2251 18.2901 10.8675V8.77762C18.2901 8.42003 17.9748 8.12903 17.5873 8.12903Z" fill="#C9C9C9"/>
<path fill-rule="evenodd" clip-rule="evenodd" d="M3.49043 15.5374H5.99305V13.5916H3.49043V15.5374ZM6.07065 12.871H3.41184C3.02433 12.871 2.70898 13.162 2.70898 13.5196V15.6095C2.70898 15.9671 3.02433 16.2581 3.41184 16.2581H6.07065C6.45815 16.2581 6.7735 15.9671 6.7735 15.6095V13.5196C6.7735 13.162 6.45815 12.871 6.07065 12.871Z" fill="#C9C9C9"/>
<path fill-rule="evenodd" clip-rule="evenodd" d="M8.91123 15.5374H11.4139V13.5916H8.91123V15.5374ZM11.4915 12.871H8.83274C8.44523 12.871 8.12988 13.162 8.12988 13.5196V15.6095C8.12988 15.9671 8.44523 16.2581 8.83274 16.2581H11.4915C11.8791 16.2581 12.1944 15.9671 12.1944 15.6095V13.5196C12.1944 13.162 11.8791 12.871 11.4915 12.871Z" fill="#C9C9C9"/>
</g>
</svg>
