<svg width="20" height="20" viewBox="0 0 20 20" fill="none" xmlns="http://www.w3.org/2000/svg">
<path d="M10 15.1667C11.841 15.1667 13.3333 13.6743 13.3333 11.8333C13.3333 9.99238 11.841 8.5 10 8.5C8.15906 8.5 6.66667 9.99238 6.66667 11.8333C6.66667 13.6743 8.15906 15.1667 10 15.1667Z" stroke="#EC6625" stroke-width="1.5" stroke-miterlimit="10" stroke-linecap="round" stroke-linejoin="round"/>
<path d="M6.66668 18.3333H13.3333C16.6833 18.3333 17.2833 16.9917 17.4583 15.3583L18.0833 8.69167C18.3083 6.65833 17.725 5 14.1667 5H5.83335C2.27501 5 1.69168 6.65833 1.91668 8.69167L2.54168 15.3583C2.71668 16.9917 3.31668 18.3333 6.66668 18.3333Z" stroke="#EC6625" stroke-width="1.5" stroke-miterlimit="10" stroke-linecap="round" stroke-linejoin="round"/>
<path d="M6.66667 5.00002V4.33335C6.66667 2.85835 6.66667 1.66669 9.33334 1.66669H10.6667C13.3333 1.66669 13.3333 2.85835 13.3333 4.33335V5.00002" stroke="#EC6625" stroke-width="1.5" stroke-miterlimit="10" stroke-linecap="round" stroke-linejoin="round"/>
<path d="M18.0417 9.16669C16.6 10.2167 15 10.95 13.3417 11.3667" stroke="#EC6625" stroke-width="1.5" stroke-miterlimit="10" stroke-linecap="round" stroke-linejoin="round"/>
<path d="M2.18333 9.39166C3.575 10.3417 5.09167 11.0167 6.66667 11.4" stroke="#EC6625" stroke-width="1.5" stroke-miterlimit="10" stroke-linecap="round" stroke-linejoin="round"/>
<circle cx="10" cy="11.6667" r="5" fill="#EC6625"/>
<path fill-rule="evenodd" clip-rule="evenodd" d="M11.9972 10.1182L9.1465 12.9096L7.92543 11.7129L7.5885 12.0429L9.1465 13.5696L12.3342 10.4482L11.9972 10.1182Z" fill="white" stroke="white" stroke-width="0.589837"/>
</svg>
