<svg width="20" height="20" viewBox="0 0 20 20" fill="none" xmlns="http://www.w3.org/2000/svg">
<path d="M9.99996 15.1667C11.8409 15.1667 13.3333 13.6743 13.3333 11.8333C13.3333 9.99238 11.8409 8.5 9.99996 8.5C8.15901 8.5 6.66663 9.99238 6.66663 11.8333C6.66663 13.6743 8.15901 15.1667 9.99996 15.1667Z" stroke="#B4A9A8" stroke-width="1.5" stroke-miterlimit="10" stroke-linecap="round" stroke-linejoin="round"/>
<path d="M6.66665 18.3333H13.3333C16.6833 18.3333 17.2833 16.9917 17.4583 15.3583L18.0833 8.69167C18.3083 6.65833 17.725 5 14.1666 5H5.83332C2.27498 5 1.69165 6.65833 1.91665 8.69167L2.54165 15.3583C2.71665 16.9917 3.31665 18.3333 6.66665 18.3333Z" stroke="#B4A9A8" stroke-width="1.5" stroke-miterlimit="10" stroke-linecap="round" stroke-linejoin="round"/>
<path d="M6.66663 5.00002V4.33335C6.66663 2.85835 6.66663 1.66669 9.33329 1.66669H10.6666C13.3333 1.66669 13.3333 2.85835 13.3333 4.33335V5.00002" stroke="#B4A9A8" stroke-width="1.5" stroke-miterlimit="10" stroke-linecap="round" stroke-linejoin="round"/>
<path d="M18.0416 9.16669C16.6 10.2167 15 10.95 13.3416 11.3667" stroke="#B4A9A8" stroke-width="1.5" stroke-miterlimit="10" stroke-linecap="round" stroke-linejoin="round"/>
<path d="M2.18329 9.39166C3.57496 10.3417 5.09162 11.0167 6.66662 11.4" stroke="#B4A9A8" stroke-width="1.5" stroke-miterlimit="10" stroke-linecap="round" stroke-linejoin="round"/>
<circle cx="9.99997" cy="11.6667" r="5" fill="#B4A9A8"/>
<path fill-rule="evenodd" clip-rule="evenodd" d="M11.9971 10.1182L9.14645 12.9096L7.92539 11.7129L7.58846 12.0429L9.14645 13.5696L12.3341 10.4482L11.9971 10.1182Z" fill="white" stroke="white" stroke-width="0.589837"/>
</svg>
