<svg width="18" height="18" viewBox="0 0 18 18" fill="none" xmlns="http://www.w3.org/2000/svg">
<g clip-path="url(#clip0_3326_31978)">
<path d="M8.25195 3H3.00195C2.60413 3 2.2226 3.15804 1.94129 3.43934C1.65999 3.72065 1.50195 4.10218 1.50195 4.5V15C1.50195 15.3978 1.65999 15.7794 1.94129 16.0607C2.2226 16.342 2.60413 16.5 3.00195 16.5H13.502C13.8998 16.5 14.2813 16.342 14.5626 16.0607C14.8439 15.7794 15.002 15.3978 15.002 15V9.75" stroke="#B2B2B2" stroke-width="1.2" stroke-linecap="round" stroke-linejoin="round"/>
<path d="M13.877 1.875C14.1753 1.57663 14.58 1.40901 15.002 1.40901C15.4239 1.40901 15.8286 1.57663 16.127 1.875C16.4253 2.17337 16.5929 2.57804 16.5929 3C16.5929 3.42196 16.4253 3.82663 16.127 4.125L9.00195 11.25L6.00195 12L6.75195 9L13.877 1.875Z" stroke="#B2B2B2" stroke-width="1.2" stroke-linecap="round" stroke-linejoin="round"/>
</g>
<defs>
<clipPath id="clip0_3326_31978">
<rect width="18" height="18" fill="white"/>
</clipPath>
</defs>
</svg>
