<svg width="147" height="31" viewBox="0 0 147 31" fill="none" xmlns="http://www.w3.org/2000/svg">
<path fill-rule="evenodd" clip-rule="evenodd" d="M6.51365 10.0161C11.4693 5.11941 17.4116 3.87282 19.8039 7.21754C22.1965 10.5453 20.1077 17.22 15.1714 22.0962C10.2157 26.9744 4.27343 28.2414 1.88017 24.8948C-0.512126 21.5674 1.57635 14.8933 6.51365 10.0161Z" fill="#F4811F"/>
<path fill-rule="evenodd" clip-rule="evenodd" d="M9.77946 7.40662C9.2477 7.8039 8.69697 8.27705 8.16552 8.8059C3.83586 13.0406 2.03288 18.8836 4.15897 21.7942C6.36126 24.7052 11.6773 23.6465 16.0828 19.3372C18.4365 17.0489 20.0318 14.365 20.6961 11.8878C20.9057 10.0714 20.6398 8.4464 19.8039 7.21742C17.9057 4.62789 13.8416 4.83469 9.77946 7.40662Z" fill="#AF2A30"/>
<path fill-rule="evenodd" clip-rule="evenodd" d="M12.2286 24.4973C9.91185 26.2183 7.53821 27.0888 5.2041 26.7277C6.19111 26.7664 6.96915 25.6901 7.6144 24.2527C8.27927 22.7577 8.67793 21.3783 8.98207 20.0936C9.437 18.0502 9.47558 16.5946 9.24795 16.2741C8.84897 15.7632 7.95648 15.8948 6.93089 16.4813C6.45732 16.7463 5.8111 16.5578 6.57016 15.6502C7.34884 14.7049 10.4237 12.4745 11.5261 12.115C12.7411 11.7738 14.1271 12.2466 13.6522 13.5697C13.3108 14.5339 9.05762 25.6508 12.2286 24.4973ZM15.704 7.25673C15.8732 7.4264 15.9696 7.65177 15.9883 7.91812V8.10603C15.9506 8.7114 15.5899 9.44866 14.9623 10.0713C13.9753 11.0564 12.6842 11.396 12.1148 10.8284C11.5261 10.2621 11.8865 8.9944 12.8745 8.01224C13.8615 7.00927 15.1533 6.70739 15.704 7.25673Z" fill="white"/>
<mask id="mask0_1888_585" style="mask-type:luminance" maskUnits="userSpaceOnUse" x="72" y="0" width="13" height="17">
<path fill-rule="evenodd" clip-rule="evenodd" d="M72.0146 0H84.9892V16.0365H72.0146V0Z" fill="white"/>
</mask>
<g mask="url(#mask0_1888_585)">
<path fill-rule="evenodd" clip-rule="evenodd" d="M84.9892 12.8957L80.91 15.0633L78.1968 13.456C78.1968 13.456 78.7607 13.1157 79.3957 12.7014C80.0284 12.2654 79.7622 12.1911 79.4201 11.8028C78.7607 11.3389 75.8746 9.48987 75.8746 9.48987L76.8047 9.02792L75.9508 7.03287L77.9759 6.98453L78.0267 5.81542C78.0267 5.81542 81.1787 7.8348 81.6681 8.00575C82.1825 8.17574 82.5715 7.90747 82.6458 7.20158V2.7729L83.9147 3.35874L84.868 1.67806L84.9188 1.60443C83.5733 0.581935 81.8883 -6.10352e-05 80.0782 -6.10352e-05C75.628 -6.10352e-05 72.0146 3.57643 72.0146 8.00575C72.0146 12.4594 75.628 16.0365 80.0782 16.0365C81.9105 16.0365 83.6234 15.426 84.9667 14.3815L84.9892 12.8957Z" fill="#004A80"/>
</g>
<path fill-rule="evenodd" clip-rule="evenodd" d="M84.9188 4.13596H84.4278V11.8504L78.3926 8.29573L78.146 8.7135L84.5037 12.4593L84.9188 12.0941V4.13596Z" fill="#004A80"/>
<path fill-rule="evenodd" clip-rule="evenodd" d="M23.918 15.9619H27.731L30.7364 4.81726H26.9266L23.918 15.9619Z" fill="#004A80"/>
<path fill-rule="evenodd" clip-rule="evenodd" d="M43.5913 15.9619H47.4056L50.4107 4.81726H46.5999L43.5913 15.9619Z" fill="#004A80"/>
<path fill-rule="evenodd" clip-rule="evenodd" d="M63.2417 15.9619H67.0775L70.0579 4.81726H66.2452L63.2417 15.9619Z" fill="#004A80"/>
<path fill-rule="evenodd" clip-rule="evenodd" d="M39.998 8.63898H43.8598C44.3511 6.13236 42.7134 4.84256 38.9479 4.84256C34.6218 4.84256 31.691 6.95958 30.6889 10.6103C29.7851 13.9663 31.5679 15.9856 35.6503 15.9856C39.8038 15.9856 42.2494 14.6984 43.2512 11.8502H39.4119C38.875 13.1157 37.8719 13.7723 36.5048 13.7723C34.6732 13.7723 33.9373 12.6044 34.5016 10.4884C35.0864 8.27243 36.5048 7.05786 38.3615 7.05786C39.5594 7.05786 40.1221 7.56783 39.998 8.63898Z" fill="#004A80"/>
<path fill-rule="evenodd" clip-rule="evenodd" d="M59.696 8.63898H63.5097C64.0228 6.13236 62.3825 4.84256 58.646 4.84256C54.2951 4.84256 51.3389 6.95958 50.3628 10.6103C49.4574 13.9663 51.2418 15.9856 55.3213 15.9856C59.4517 15.9856 61.897 14.6984 62.9461 11.8502H59.0855C58.5476 13.1157 57.5471 13.7723 56.1778 13.7723C54.3211 13.7723 53.6109 12.6044 54.198 10.4884C54.7844 8.27243 56.1778 7.05786 58.0354 7.05786C59.2102 7.05786 59.7728 7.56783 59.696 8.63898Z" fill="#004A80"/>
<path fill-rule="evenodd" clip-rule="evenodd" d="M132.546 15.4999V15.8895C132.475 16.2301 130.224 16.4977 129.86 15.6705C129.469 16.2535 127.662 16.4977 126.902 16.3028C126.902 16.3028 124.31 16.0614 125.289 13.3592C125.583 12.7269 126.534 12.094 129.054 11.8027C129.906 11.6564 129.834 10.463 129.566 10.0007C129.248 9.41551 128.418 8.83159 127.611 9.17413C127.074 9.44176 126.828 9.75804 126.586 10.147H125.705V9.31979C125.947 9.07777 126.656 8.29569 128.761 8.29569C130.3 8.46632 131.668 8.49033 131.668 10.8279V15.1116C131.765 15.4775 131.815 15.5492 132.546 15.4999ZM129.665 14.5264V12.3623C127.563 12.822 127.098 13.3115 127.074 13.7974C126.976 15.0379 127.611 15.3542 127.977 15.4775C128.588 15.6955 129.469 15.0146 129.665 14.5264ZM135.747 12.3623C135.774 10.4377 137.119 10.051 137.51 10.269C137.997 10.5373 138.561 10.3654 138.561 10.3654C138.561 10.3654 138.681 8.6389 138.681 8.3463C136.213 8.05434 136.09 9.09989 135.747 9.00417V8.3463H135.04L134.821 8.51341L134.601 8.3463H133.695V16.1082C134.284 15.9126 135.747 16.0845 135.747 16.0845V12.3623ZM103.783 8.34626C103.783 8.34626 103.808 15.8645 103.808 16.1081C104.395 15.9125 105.739 16.0844 105.739 16.0844V11.4118C105.739 10.7556 105.886 9.24487 107.279 9.24487C108.814 9.24487 108.645 11.3638 108.645 11.3638V16.0844C109.208 15.8431 110.456 16.0844 110.456 16.0844V11.3869C110.456 9.9277 111.335 9.24487 111.995 9.19909C112.679 9.19909 113.387 9.78332 113.387 11.2902V16.0844C114.074 15.8168 115.32 16.0844 115.32 16.0844V10.6349C115.32 9.29417 114.17 8.32385 112.804 8.22493C110.628 8.22493 110.038 9.27112 110.038 9.27112C108.6 7.39772 106.08 8.39396 105.542 8.85655V8.34626H104.909L104.711 8.51337L104.492 8.34626H103.783ZM146.918 4.04086V16.2052H144.912C144.912 16.0365 144.887 15.5492 144.887 15.5492C144.083 16.4241 143.274 16.3758 142.468 16.3527C140.733 16.2798 139.049 15.2822 139.049 12.216C139.049 9.36815 141.248 8.54093 142.275 8.39399C143.838 8.24961 144.887 9.09988 144.887 9.09988V4.06391H145.598L145.84 4.16283L146.084 4.04086H146.918ZM143.374 15.3056C143.737 15.2822 145.083 14.9179 145.134 12.3623C145.059 10.051 143.961 9.09987 143.374 9.07778C143.008 9.07778 141.688 9.44177 141.688 12.2391C141.688 14.5021 142.81 15.3542 143.374 15.3056ZM124.605 12.1911C124.605 15.2553 122.089 16.0365 121.281 16.0365C120.474 16.0365 119.277 16.1082 118.471 15.2323C118.152 15.5735 117.736 15.9126 117.736 15.9126H116.786L116.761 4.06391L117.687 4.04086L117.956 4.16283L118.201 4.06391H119.009V9.09988C119.009 9.09988 119.937 8.32388 121.527 8.46634C122.528 8.63889 124.605 9.09988 124.605 12.1911ZM120.597 15.4263C121.232 15.4775 122.478 14.5991 122.478 12.3623C122.478 9.56374 121.034 9.17414 120.597 9.19911C119.961 9.22248 118.741 10.147 118.666 12.4593C118.717 15.038 120.181 15.3799 120.597 15.4263ZM102.488 12.3367C102.341 15.7426 99.802 16.1082 98.4308 16.1082C98.4308 16.1082 94.422 16.5717 94.422 12.2653C94.422 8.5883 97.4058 8.20062 98.577 8.20062C98.577 8.20062 102.488 8.02999 102.488 12.3367ZM98.4308 15.5988C99.1165 15.6705 100.46 14.7463 100.46 12.288C100.46 9.24487 98.8934 8.83159 98.4308 8.85656C97.7218 8.88153 96.4018 9.90274 96.3043 12.41C96.378 15.1836 97.9922 15.5735 98.4308 15.5988ZM87.4116 5.16004H88.3379L88.5835 5.28201L88.8503 5.16004H89.9033V14.9179C89.9033 14.9179 93.2761 14.9179 93.7413 14.7953C93.5465 15.2822 93.5925 15.7675 93.787 16.0115H87.4344L87.4116 5.16004Z" fill="#004A80"/>
<mask id="mask1_1888_585" style="mask-type:luminance" maskUnits="userSpaceOnUse" x="101" y="24" width="46" height="4">
<path fill-rule="evenodd" clip-rule="evenodd" d="M101.038 24.4723H147V27.4886H101.038V24.4723Z" fill="white"/>
</mask>
<g mask="url(#mask1_1888_585)">
<path fill-rule="evenodd" clip-rule="evenodd" d="M101.863 24.4723H147L145.899 27.4886H101.038L101.863 24.4723Z" fill="#F4811F"/>
</g>
<path fill-rule="evenodd" clip-rule="evenodd" d="M20.438 28.0569L22.7499 20.1237H24.7107L26.2392 26.6048L27.9406 20.1237H29.5879L27.2869 28.0569H25.1104L23.6681 21.6242L22.0638 28.0569H20.438Z" fill="#004A80"/>
<path fill-rule="evenodd" clip-rule="evenodd" d="M30.7873 21.3931L31.1602 20.1238H32.8076L32.435 21.3931H30.7873ZM28.8589 28.0569L30.4957 22.528H32.1594L30.5172 28.0569H28.8589Z" fill="#004A80"/>
<path fill-rule="evenodd" clip-rule="evenodd" d="M36.0214 23.41C35.5569 23.41 35.1492 23.6779 34.7978 24.2141C34.4471 24.75 34.2715 25.3586 34.2715 26.0398C34.2715 26.3843 34.3451 26.6503 34.4927 26.8386C34.6406 27.0268 34.8512 27.1209 35.1248 27.1209C35.3408 27.1209 35.5405 27.0511 35.7244 26.9112C35.908 26.7713 36.0755 26.5617 36.2266 26.2819C36.3995 25.9736 36.5391 25.6349 36.6452 25.2655C36.7516 24.8963 36.8046 24.5826 36.8046 24.3243C36.8046 24.0301 36.7371 23.8044 36.6021 23.6466C36.4671 23.489 36.2735 23.41 36.0214 23.41ZM32.0352 28.057L34.3795 20.1238H36.0539L35.1679 23.055C35.4489 22.8219 35.7225 22.6535 35.989 22.5495C36.2555 22.4454 36.5381 22.3936 36.8371 22.3936C37.3518 22.3936 37.7428 22.5475 38.0093 22.8562C38.2755 23.1644 38.4089 23.6126 38.4089 24.2007C38.4089 25.3013 38.1279 26.2354 37.5663 27.0028C37.0046 27.7701 36.3076 28.1537 35.4759 28.1537C35.0942 28.1537 34.7747 28.0765 34.5172 27.9225C34.2596 27.7682 34.0677 27.5371 33.942 27.2285L33.6825 28.057H32.0352Z" fill="#004A80"/>
<path fill-rule="evenodd" clip-rule="evenodd" d="M38.7598 28.0569L41.1148 20.1132H42.7676L41.8275 23.2754C42.159 22.9745 42.4805 22.752 42.792 22.6086C43.1033 22.4652 43.4228 22.3934 43.7508 22.3934C44.179 22.3934 44.5114 22.5065 44.7474 22.7321C44.9831 22.9582 45.1011 23.2792 45.1011 23.6951C45.1011 23.9605 45.0255 24.353 44.8741 24.8729C44.8525 24.9446 44.8365 24.9983 44.8255 25.0342L43.9398 28.0569H42.2815L43.3293 24.5233C43.3617 24.4192 43.3868 24.3241 43.4051 24.238C43.4228 24.1522 43.4322 24.0767 43.4322 24.0123C43.4322 23.858 43.3807 23.739 43.2782 23.6548C43.1753 23.5706 43.0306 23.5283 42.8432 23.5283C42.5117 23.5283 42.205 23.6698 41.9224 23.9531C41.6398 24.2364 41.426 24.6199 41.2823 25.104L40.4181 28.0569H38.7598Z" fill="#004A80"/>
<path fill-rule="evenodd" clip-rule="evenodd" d="M49.2547 25.3676C49.2116 25.3641 49.1676 25.3612 49.1223 25.3596C49.0772 25.3577 49.0226 25.3568 48.9576 25.3568C48.4391 25.3568 48.0115 25.4698 47.6749 25.6958C47.3382 25.9215 47.1698 26.2048 47.1698 26.5454C47.1698 26.725 47.2193 26.8636 47.3183 26.9622C47.4173 27.0611 47.5549 27.1101 47.7314 27.1101C48.0484 27.1101 48.3481 26.9516 48.631 26.6344C48.9133 26.3168 49.1213 25.8946 49.2547 25.3676ZM48.6985 28.0567C48.7021 27.9277 48.7111 27.7958 48.7255 27.6617C48.7397 27.5272 48.758 27.3883 48.7792 27.2446C48.5381 27.5493 48.2841 27.7718 48.0179 27.9117C47.7514 28.0516 47.4524 28.1214 47.1212 28.1214C46.6602 28.1214 46.293 27.9895 46.0194 27.726C45.7455 27.4626 45.6089 27.1101 45.6089 26.6693C45.6089 25.9772 45.9056 25.4448 46.5001 25.0718C47.0942 24.6989 47.9475 24.5126 49.0602 24.5126C49.1827 24.5126 49.2753 24.5135 49.3383 24.5151C49.4013 24.5171 49.4602 24.518 49.5142 24.518C49.5753 24.317 49.6164 24.1649 49.6383 24.0605C49.6598 23.9568 49.6704 23.8672 49.6704 23.792C49.6704 23.6303 49.6193 23.5077 49.5167 23.4235C49.4142 23.3393 49.2618 23.297 49.0602 23.297C48.8297 23.297 48.6487 23.3518 48.5175 23.4609C48.386 23.5704 48.286 23.7471 48.2176 23.9908H46.6567C46.7467 23.4853 47.0087 23.0928 47.4424 22.813C47.8764 22.5332 48.4445 22.3933 49.1467 22.3933C49.8308 22.3933 50.343 22.5108 50.6835 22.7458C51.0236 22.9804 51.1937 23.3329 51.1937 23.8025C51.1937 23.9459 51.1795 24.0948 51.1506 24.2488C51.1217 24.4031 51.0767 24.5753 51.0156 24.7652L50.443 26.6478C50.3745 26.8665 50.3189 27.0951 50.2755 27.3336C50.2324 27.5721 50.2019 27.8131 50.1839 28.0567H48.6985Z" fill="#004A80"/>
<path fill-rule="evenodd" clip-rule="evenodd" d="M52.2527 30.1491L53.4359 28.1L52.1987 22.5278H53.8246L54.4782 26.3626L56.358 22.5278H57.8974L54.8563 28.3311L53.9921 30.1491H52.2527Z" fill="#004A80"/>
<path fill-rule="evenodd" clip-rule="evenodd" d="M59.9713 24.6739H61.7213C61.7717 24.5017 61.8087 24.3608 61.8322 24.2517C61.8553 24.1422 61.8672 24.048 61.8672 23.9693C61.8672 23.7795 61.8097 23.6296 61.6943 23.5202C61.5788 23.411 61.4226 23.3562 61.2242 23.3562C60.9362 23.3562 60.678 23.4753 60.4494 23.7138C60.2205 23.9523 60.0613 24.2725 59.9713 24.6739ZM62.8069 26.3735C62.6124 26.983 62.2974 27.4366 61.8617 27.7344C61.4261 28.0318 60.8516 28.1806 60.1388 28.1806C59.4437 28.1806 58.9181 28.0238 58.5615 27.71C58.205 27.3963 58.0269 26.9347 58.0269 26.3252C58.0269 25.877 58.1124 25.3881 58.2834 24.8596C58.4545 24.3304 58.6676 23.8906 58.9235 23.5391C59.2151 23.1447 59.5498 22.8533 59.9282 22.6651C60.3063 22.4769 60.749 22.3828 61.257 22.3828C61.9553 22.3828 62.4784 22.5287 62.8259 22.821C63.1735 23.1133 63.3471 23.5515 63.3471 24.1361C63.3471 24.3333 63.3255 24.5555 63.2824 24.8029C63.2394 25.0504 63.1725 25.3427 63.0825 25.6798H59.6527C59.6093 25.8338 59.5787 25.972 59.5607 26.0937C59.5427 26.2157 59.5337 26.3303 59.5337 26.4378C59.5337 26.6747 59.5922 26.8546 59.7093 26.9785C59.8263 27.1021 59.9964 27.1639 60.2198 27.1639C60.4394 27.1639 60.6355 27.0951 60.8085 26.9571C60.9815 26.8191 61.1165 26.6245 61.2136 26.3735H62.8069Z" fill="#004A80"/>
<path fill-rule="evenodd" clip-rule="evenodd" d="M69.1319 28.0569L67.9922 20.1237H69.6505L70.4118 26.2388L73.4693 20.1237H75.2138L70.8224 28.0569H69.1319Z" fill="#004A80"/>
<path fill-rule="evenodd" clip-rule="evenodd" d="M77.1262 25.3676C77.0828 25.3641 77.039 25.3612 76.994 25.3596C76.9487 25.3577 76.8937 25.3568 76.8291 25.3568C76.3105 25.3568 75.8829 25.4698 75.5463 25.6958C75.2094 25.9215 75.0412 26.2048 75.0412 26.5454C75.0412 26.725 75.0907 26.8636 75.1897 26.9622C75.2888 27.0611 75.4264 27.1101 75.6032 27.1101C75.9199 27.1101 76.2195 26.9516 76.5024 26.6344C76.7847 26.3168 76.9931 25.8946 77.1262 25.3676ZM76.5699 28.0567C76.5731 27.9277 76.5825 27.7958 76.5969 27.6617C76.6111 27.5272 76.6291 27.3883 76.6506 27.2446C76.4095 27.5493 76.1555 27.7718 75.889 27.9117C75.6225 28.0516 75.3241 28.1214 74.9926 28.1214C74.5316 28.1214 74.1641 27.9895 73.8909 27.726C73.6169 27.4626 73.48 27.1101 73.48 26.6693C73.48 25.9772 73.7774 25.4448 74.3715 25.0718C74.9653 24.6989 75.8192 24.5126 76.9319 24.5126C77.0538 24.5126 77.1467 24.5135 77.21 24.5151C77.2727 24.5171 77.3316 24.518 77.3856 24.518C77.4467 24.317 77.4881 24.1649 77.5097 24.0605C77.5312 23.9568 77.5422 23.8672 77.5422 23.792C77.5422 23.6303 77.4907 23.5077 77.3878 23.4235C77.2856 23.3393 77.1332 23.297 76.9319 23.297C76.7014 23.297 76.5201 23.3518 76.3889 23.4609C76.2574 23.5704 76.1574 23.7471 76.089 23.9908H74.5281C74.6181 23.4853 74.8801 23.0928 75.3138 22.813C75.7479 22.5332 76.3156 22.3933 77.0181 22.3933C77.7023 22.3933 78.2147 22.5108 78.5546 22.7458C78.895 22.9804 79.0651 23.3329 79.0651 23.8025C79.0651 23.9459 79.0506 24.0948 79.022 24.2488C78.9934 24.4031 78.9481 24.5753 78.8873 24.7652L78.3144 26.6478C78.2459 26.8665 78.1903 27.0951 78.1472 27.3336C78.1038 27.5721 78.073 27.8131 78.0553 28.0567H76.5699Z" fill="#004A80"/>
<path fill-rule="evenodd" clip-rule="evenodd" d="M83.2082 25.3676C83.1648 25.3641 83.1211 25.3612 83.076 25.3596C83.0307 25.3577 82.9757 25.3568 82.9111 25.3568C82.3925 25.3568 81.9649 25.4698 81.6283 25.6958C81.2914 25.9215 81.1232 26.2048 81.1232 26.5454C81.1232 26.725 81.1728 26.8636 81.2718 26.9622C81.3708 27.0611 81.5084 27.1101 81.6852 27.1101C82.0019 27.1101 82.3015 26.9516 82.5845 26.6344C82.8667 26.3168 83.0751 25.8946 83.2082 25.3676ZM82.652 28.0567C82.6552 27.9277 82.6645 27.7958 82.679 27.6617C82.6931 27.5272 82.7111 27.3883 82.7327 27.2446C82.4915 27.5493 82.2376 27.7718 81.971 27.9117C81.7045 28.0516 81.4061 28.1214 81.0747 28.1214C80.6136 28.1214 80.2462 27.9895 79.9729 27.726C79.699 27.4626 79.562 27.1101 79.562 26.6693C79.562 25.9772 79.8594 25.4448 80.4535 25.0718C81.0474 24.6989 81.9013 24.5126 83.014 24.5126C83.1358 24.5126 83.2287 24.5135 83.2921 24.5151C83.3548 24.5171 83.4136 24.518 83.4676 24.518C83.5287 24.317 83.5702 24.1649 83.5917 24.0605C83.6133 23.9568 83.6242 23.8672 83.6242 23.792C83.6242 23.6303 83.5727 23.5077 83.4699 23.4235C83.3676 23.3393 83.2152 23.297 83.014 23.297C82.7835 23.297 82.6021 23.3518 82.471 23.4609C82.3395 23.5704 82.2395 23.7471 82.171 23.9908H80.6101C80.7001 23.4853 80.9622 23.0928 81.3959 22.813C81.8299 22.5332 82.3977 22.3933 83.1001 22.3933C83.7843 22.3933 84.2968 22.5108 84.6366 22.7458C84.9771 22.9804 85.1471 23.3329 85.1471 23.8025C85.1471 23.9459 85.1327 24.0948 85.1041 24.2488C85.0754 24.4031 85.0301 24.5753 84.9694 24.7652L84.3964 26.6478C84.328 26.8665 84.2723 27.0951 84.2293 27.3336C84.1859 27.5721 84.155 27.8131 84.1373 28.0567H82.652Z" fill="#004A80"/>
<path fill-rule="evenodd" clip-rule="evenodd" d="M88.3667 27.0994C88.8312 27.0994 89.2383 26.8305 89.5874 26.2927C89.9369 25.7549 90.1115 25.1453 90.1115 24.4641C90.1115 24.12 90.0375 23.8546 89.8899 23.6679C89.7421 23.4816 89.5334 23.3885 89.2633 23.3885C89.0473 23.3885 88.8483 23.4576 88.6666 23.5956C88.4847 23.7336 88.3181 23.9423 88.167 24.2221C87.9976 24.5304 87.859 24.87 87.751 25.2414C87.643 25.6124 87.589 25.9271 87.589 26.1851C87.589 26.4793 87.6555 26.705 87.7886 26.8628C87.922 27.0207 88.1146 27.0994 88.3667 27.0994ZM89.2633 28.057L89.3607 27.3415C89.0653 27.6248 88.7711 27.831 88.4775 27.96C88.184 28.089 87.866 28.1537 87.524 28.1537C87.0089 28.1537 86.6186 28.0022 86.3518 27.6994C86.0853 27.3962 85.9521 26.9509 85.9521 26.3629C85.9521 25.2584 86.2338 24.3207 86.7974 23.5499C87.361 22.779 88.057 22.3936 88.8852 22.3936C89.2668 22.3936 89.5864 22.4714 89.8439 22.6273C90.1015 22.7835 90.295 23.0137 90.4246 23.3184L91.3643 20.1238H93.012L91.1865 26.3251C91.0602 26.7553 90.9647 27.096 90.9001 27.3469C90.8351 27.5979 90.7792 27.8345 90.7322 28.057H89.2633Z" fill="#004A80"/>
<path fill-rule="evenodd" clip-rule="evenodd" d="M94.5675 24.6739H96.3174C96.3682 24.5017 96.4049 24.3608 96.4283 24.2517C96.4518 24.1422 96.4634 24.048 96.4634 23.9693C96.4634 23.7795 96.4058 23.6296 96.2904 23.5202C96.1753 23.411 96.0187 23.3562 95.8207 23.3562C95.5326 23.3562 95.2741 23.4753 95.0456 23.7138C94.8166 23.9523 94.6575 24.2725 94.5675 24.6739ZM97.4031 26.3735C97.2089 26.983 96.8936 27.4366 96.4582 27.7344C96.0223 28.0318 95.4481 28.1806 94.735 28.1806C94.0399 28.1806 93.5146 28.0238 93.1577 27.71C92.8015 27.3963 92.623 26.9347 92.623 26.3252C92.623 25.877 92.7086 25.3881 92.8796 24.8596C93.0506 24.3304 93.2638 23.8906 93.5197 23.5391C93.8113 23.1447 94.146 22.8533 94.5244 22.6651C94.9025 22.4769 95.3455 22.3828 95.8532 22.3828C96.5518 22.3828 97.0749 22.5287 97.4224 22.821C97.7696 23.1133 97.9436 23.5515 97.9436 24.1361C97.9436 24.3333 97.922 24.5555 97.8786 24.8029C97.8356 25.0504 97.7687 25.3427 97.679 25.6798H94.2489C94.2058 25.8338 94.1749 25.972 94.1573 26.0937C94.1389 26.2157 94.1302 26.3303 94.1302 26.4378C94.1302 26.6747 94.1884 26.8546 94.3058 26.9785C94.4228 27.1021 94.5929 27.1639 94.816 27.1639C95.0356 27.1639 95.2317 27.0951 95.4047 26.9571C95.578 26.8191 95.713 26.6245 95.8098 26.3735H97.4031Z" fill="#004A80"/>
</svg>
