<svg width="16" height="18" viewBox="0 0 16 18" fill="none" xmlns="http://www.w3.org/2000/svg">
<path fill-rule="evenodd" clip-rule="evenodd" d="M4.52103 3.91945C8.50408 -0.186527 13.2802 -1.23181 15.203 1.57279C17.126 4.36317 15.4472 9.96004 11.4796 14.0488C7.49656 18.1392 2.72047 19.2017 0.796908 16.3955C-1.12588 13.6054 0.552716 8.00905 4.52103 3.91945Z" fill="#F4811F"/>
<path fill-rule="evenodd" clip-rule="evenodd" d="M7.14643 1.73135C6.71903 2.06448 6.27638 2.46123 5.84924 2.90468C2.36931 6.45554 0.920173 11.355 2.629 13.7956C4.39907 16.2365 8.67179 15.3488 12.2127 11.7354C14.1045 9.81661 15.3867 7.56605 15.9206 5.4889C16.089 3.9658 15.8753 2.60323 15.2035 1.57271C13.6779 -0.59866 10.4114 -0.425251 7.14643 1.73135Z" fill="#AF2A30"/>
<path fill-rule="evenodd" clip-rule="evenodd" d="M9.1153 16.0622C7.25324 17.5053 5.34544 18.2352 3.46942 17.9324C4.26272 17.9649 4.88806 17.0624 5.40668 15.8571C5.94106 14.6035 6.26148 13.4468 6.50593 12.3696C6.87158 10.6562 6.90258 9.43562 6.71963 9.16692C6.39895 8.7385 5.68162 8.84882 4.85731 9.3406C4.47668 9.56286 3.95729 9.40475 4.56738 8.64374C5.19324 7.85105 7.66462 5.98087 8.55069 5.67942C9.5272 5.39326 10.6412 5.78974 10.2595 6.89918C9.98509 7.70771 6.56666 17.0294 9.1153 16.0622ZM11.9089 1.60564C12.0448 1.74791 12.1223 1.93689 12.1373 2.16023V2.3178C12.1071 2.82541 11.8171 3.44362 11.3127 3.96572C10.5194 4.79169 9.48168 5.0765 9.02404 4.60057C8.5509 4.12571 8.84057 3.06271 9.63465 2.23915C10.428 1.39814 11.4662 1.14501 11.9089 1.60564Z" fill="#FEFEFE"/>
</svg>
