<svg width="300" height="160" viewBox="0 0 300 160" fill="none" xmlns="http://www.w3.org/2000/svg">
<path d="M33.7306 79.9338C34.2126 80.9904 34.7259 82.0245 35.2759 83.0417C39.0811 90.165 37.4933 98.9592 31.2212 104.068C24.1269 109.85 19.5987 118.63 19.5987 128.458C19.5987 145.875 33.8072 160 51.3388 160H268.26C285.786 160 300 145.88 300 128.458C300 121.191 297.527 114.502 293.374 109.171C285.179 98.6549 282.911 84.7521 286.551 71.9511C287.946 67.0511 288.692 61.8918 288.692 56.5493C288.695 25.3174 263.218 0 231.785 0H33.1664C14.8493 0 0 14.7565 0 32.9592C0 45.191 6.70869 55.859 16.6583 61.5424C24.1269 65.8112 30.1579 72.1343 33.7306 79.931V79.9338Z" fill="#FFEDE6"/>
<path d="M224.917 40.4562L223.717 40.8441C222.031 41.389 221.109 43.1888 221.657 44.864L224.556 53.7199C225.105 55.3951 226.916 56.3113 228.602 55.7664L229.801 55.3785C231.487 54.8335 232.409 53.0338 231.861 51.3585L228.962 42.5027C228.413 40.8275 226.602 39.9112 224.917 40.4562Z" fill="#E0512B"/>
<path d="M57.7243 126.666C63.2421 119.937 70.5519 114.958 78.8598 112.273L92.0787 108.001L90.4937 103.163L77.2748 107.435C68.0283 110.424 59.8962 115.961 53.7546 123.451C45.6878 133.288 34.0482 139.087 21.7792 139.943C22.4512 141.648 23.2593 143.288 24.2063 144.832C27.6117 144.454 30.9632 143.741 34.207 142.69C43.2408 139.768 51.4551 134.31 57.7243 126.663V126.666Z" fill="#081830"/>
<path d="M248.948 37.3801L206.96 50.6488L208.511 55.4982L250.499 42.2294C263.235 38.2057 276.809 40.009 287.827 46.6786C287.425 44.4075 286.886 42.1843 286.22 40.0147C274.815 34.5342 261.514 33.4071 248.948 37.3801Z" fill="#E0512B"/>
<path d="M170.81 40.3328L200.513 30.7305C210.099 27.6317 220.415 32.851 223.534 42.3767L227.546 54.6329C230.664 64.1586 225.412 74.4109 215.826 77.5097L186.123 87.112L170.81 40.3328Z" fill="#EC712A"/>
<path d="M174.868 39.0256L192.647 85.0112L186.573 86.9724L174.868 39.0256Z" fill="#E0512B"/>
<path d="M171.77 36.6778L167.871 37.9382C166.706 38.3147 166.069 39.558 166.448 40.7153L182.37 89.3541C182.749 90.5114 184 91.1443 185.165 90.7679L189.064 89.5074C190.228 89.131 190.865 87.8876 190.486 86.7304L174.564 38.0915C174.185 36.9343 172.934 36.3013 171.77 36.6778Z" fill="#EC712A"/>
<path d="M169.005 47.1661L170.984 53.2158C172.104 52.8523 172.716 51.6576 172.353 50.5446L171.693 48.5271C171.327 47.4141 170.125 46.8055 169.005 47.1661Z" fill="#FFF5F3"/>
<path d="M178.642 76.6031L180.621 82.6528C181.741 82.2893 182.354 81.0946 181.991 79.9816L181.33 77.9641C180.965 76.8511 179.762 76.2425 178.642 76.6031Z" fill="#FFF5F3"/>
<path d="M80.9502 117.178L82.1501 116.79C83.8358 116.245 84.7578 114.445 84.2095 112.77L81.3105 103.914C80.7621 102.239 78.951 101.323 77.2653 101.868L76.0654 102.256C74.3796 102.801 73.4576 104.601 74.006 106.276L76.905 115.132C77.4534 116.807 79.2645 117.723 80.9502 117.178Z" fill="#081830"/>
<path d="M135.058 117.301L105.355 126.904C95.769 130.002 85.4522 124.783 82.334 115.257L78.3219 103.001C75.2036 93.4754 80.4558 83.2231 90.0414 80.1243L119.745 70.522L135.058 117.301Z" fill="#193965"/>
<path d="M122.407 75.8984L142.088 69.5361C143.768 68.9931 145.576 69.9079 146.122 71.5772C146.669 73.2466 145.748 75.0435 144.068 75.5865L124.387 81.9488L122.407 75.8984Z" fill="#075589"/>
<path d="M132.046 105.335L151.726 98.9732C153.406 98.4301 155.214 99.3449 155.761 101.014C156.307 102.684 155.387 104.48 153.707 105.024L134.026 111.386L132.046 105.335Z" fill="#075589"/>
<path d="M131.001 118.61L113.223 72.6273L119.296 70.6633L131.001 118.61Z" fill="#081830"/>
<path d="M129.257 80.3763L126.822 81.1653L124.842 75.1156L125.653 74.8535L129.257 80.3763Z" fill="#0F2551"/>
<path d="M138.892 109.816L136.456 110.605L134.477 104.555L135.288 104.293L138.892 109.816Z" fill="#0F2551"/>
<path d="M134.097 120.959L137.996 119.698C139.161 119.322 139.798 118.079 139.419 116.921L123.497 68.2826C123.118 67.1254 121.867 66.4924 120.703 66.8689L116.804 68.1293C115.639 68.5058 115.002 69.7491 115.381 70.9063L131.303 119.545C131.682 120.702 132.933 121.335 134.097 120.959Z" fill="#193965"/>
<path d="M106.185 42.645L105.605 46.3196L121.348 48.7723L121.928 45.0977L106.185 42.645Z" fill="#FADCD1"/>
<path d="M135.527 14.5108L131.808 14.9299L133.604 30.6648L137.323 30.2457L135.527 14.5108Z" fill="#FADCD1"/>
<path d="M179.734 106.38L178.118 109.735L192.493 116.57L194.108 113.215L179.734 106.38Z" fill="#FADCD1"/>
<path d="M159.084 119.601L156.262 135.187L159.945 135.845L162.767 120.26L159.084 119.601Z" fill="#FADCD1"/>
</svg>
