<svg width="24" height="24" viewBox="0 0 24 24" fill="none" xmlns="http://www.w3.org/2000/svg">
<path d="M18.09 16H5.89999C5.11755 16 4.6846 15.796 4.44244 15.5545C4.20008 15.3127 3.99454 14.8795 3.98999 14.0972V3H19.99V14.1C19.99 14.8829 19.7858 15.3149 19.5454 15.5554C19.3049 15.7958 18.8728 16 18.09 16Z" stroke="#A6ABC8" stroke-width="2" stroke-miterlimit="10" stroke-linecap="round" stroke-linejoin="round"/>
<path d="M2 3H22" stroke="#A6ABC8" stroke-width="2" stroke-miterlimit="10" stroke-linecap="round" stroke-linejoin="round"/>
<path d="M8 22L12 20V17" stroke="#A6ABC8" stroke-width="2" stroke-miterlimit="10" stroke-linecap="round" stroke-linejoin="round"/>
<path d="M16 22L12 20" stroke="#A6ABC8" stroke-width="2" stroke-miterlimit="10" stroke-linecap="round" stroke-linejoin="round"/>
<path d="M7.5 11L10.65 8.37C10.9 8.16 11.23 8.22 11.4 8.5L12.6 10.5C12.77 10.78 13.1 10.83 13.35 10.63L16.5 8" stroke="#A6ABC8" stroke-width="2" stroke-miterlimit="10" stroke-linecap="round" stroke-linejoin="round"/>
</svg>
