<svg width="24" height="24" viewBox="0 0 24 24" fill="none" xmlns="http://www.w3.org/2000/svg">
<path d="M4.22794 17.8989L4.22786 17.8988C3.47131 17.4623 3 16.6494 3 15.762V8.23803C3 7.36585 3.46788 6.54889 4.23154 6.09904L10.7661 2.32818C10.7661 2.32816 10.7662 2.32815 10.7662 2.32813C11.5224 1.89185 12.4633 1.88898 13.2359 2.32935C13.2365 2.32969 13.2371 2.33004 13.2377 2.33038L19.7655 6.09729C19.7665 6.09787 19.7675 6.09845 19.7685 6.09903C20.5336 6.54976 21 7.35661 21 8.23803V15.762C21 16.6341 20.5321 17.4511 19.7685 17.9009C19.7675 17.9015 19.7665 17.9021 19.7655 17.9027L13.2339 21.6718C12.4777 22.1081 11.5368 22.111 10.7642 21.6707C10.7635 21.6703 10.7629 21.67 10.7623 21.6696L4.22794 17.8989Z" stroke="white" stroke-width="2" stroke-linecap="round" stroke-linejoin="round"/>
<path d="M12 11.0001C13.2869 11.0001 14.33 9.95687 14.33 8.67004C14.33 7.38322 13.2869 6.34009 12 6.34009C10.7132 6.34009 9.67004 7.38322 9.67004 8.67004C9.67004 9.95687 10.7132 11.0001 12 11.0001Z" stroke="white" stroke-width="1.5" stroke-linecap="round" stroke-linejoin="round"/>
<path d="M16 16.6601C16 14.8601 14.21 13.4001 12 13.4001C9.79 13.4001 8 14.8601 8 16.6601" stroke="white" stroke-width="1.5" stroke-linecap="round" stroke-linejoin="round"/>
</svg>
