<svg width="23" height="23" viewBox="0 0 23 23" fill="none" xmlns="http://www.w3.org/2000/svg">
<path d="M11.5 11.5001C14.1464 11.5001 16.2917 9.35478 16.2917 6.70841C16.2917 4.06205 14.1464 1.91675 11.5 1.91675C8.85368 1.91675 6.70837 4.06205 6.70837 6.70841C6.70837 9.35478 8.85368 11.5001 11.5 11.5001Z" stroke="white" stroke-width="1.5" stroke-linecap="round" stroke-linejoin="round"/>
<path d="M3.26794 21.0833C3.26794 17.3746 6.95755 14.375 11.5001 14.375" stroke="white" stroke-width="1.5" stroke-linecap="round" stroke-linejoin="round"/>
<path d="M17.4417 20.5084C19.1354 20.5084 20.5084 19.1354 20.5084 17.4417C20.5084 15.748 19.1354 14.375 17.4417 14.375C15.748 14.375 14.375 15.748 14.375 17.4417C14.375 19.1354 15.748 20.5084 17.4417 20.5084Z" stroke="white" stroke-width="1.5" stroke-linecap="round" stroke-linejoin="round"/>
<path d="M21.0833 21.0833L20.125 20.125" stroke="white" stroke-width="1.5" stroke-linecap="round" stroke-linejoin="round"/>
</svg>
