<svg width="24" height="24" viewBox="0 0 24 24" fill="none" xmlns="http://www.w3.org/2000/svg">
<path d="M4.02801 18.2453L4.02796 18.2453C3.14696 17.737 2.6 16.7917 2.6 15.762V8.23803C2.6 7.22195 3.14486 6.27419 4.03009 5.75346L10.5662 1.98171C10.5662 1.9817 10.5662 1.98169 10.5663 1.98168C11.4471 1.47353 12.5399 1.47179 13.4349 1.98236C13.4353 1.98258 13.4357 1.9828 13.4361 1.98303L19.968 5.75237C19.9687 5.75274 19.9693 5.7531 19.9699 5.75347C20.8561 6.27472 21.4 7.21202 21.4 8.23803V15.762C21.4 16.778 20.8552 17.7257 19.97 18.2465C19.9694 18.2468 19.9687 18.2472 19.968 18.2476L13.4338 22.0183C13.4338 22.0183 13.4338 22.0183 13.4337 22.0183C12.553 22.5264 11.4603 22.5282 10.5653 22.0177C10.5648 22.0175 10.5644 22.0172 10.5639 22.017L4.02801 18.2453Z" stroke="#004A80" stroke-width="1.2" stroke-linecap="round" stroke-linejoin="round"/>
<path d="M11.9999 11C13.2867 11 14.3299 9.95681 14.3299 8.66998C14.3299 7.38316 13.2867 6.34003 11.9999 6.34003C10.7131 6.34003 9.66992 7.38316 9.66992 8.66998C9.66992 9.95681 10.7131 11 11.9999 11Z" stroke="#EC6625" stroke-width="1.5" stroke-linecap="round" stroke-linejoin="round"/>
<path d="M16 16.66C16 14.86 14.21 13.4 12 13.4C9.79 13.4 8 14.86 8 16.66" stroke="#EC6625" stroke-width="1.5" stroke-linecap="round" stroke-linejoin="round"/>
</svg>
