<svg width="23" height="23" viewBox="0 0 23 23" fill="none" xmlns="http://www.w3.org/2000/svg">
<path d="M11.4999 11.5C14.1463 11.5 16.2916 9.35469 16.2916 6.70832C16.2916 4.06196 14.1463 1.91666 11.4999 1.91666C8.85355 1.91666 6.70825 4.06196 6.70825 6.70832C6.70825 9.35469 8.85355 11.5 11.4999 11.5Z" stroke="#A6ABC8" stroke-width="1.5" stroke-linecap="round" stroke-linejoin="round"/>
<path d="M3.26782 21.0833C3.26782 17.3746 6.95743 14.375 11.4999 14.375" stroke="#A6ABC8" stroke-width="1.5" stroke-linecap="round" stroke-linejoin="round"/>
<path d="M17.4417 20.5084C19.1354 20.5084 20.5084 19.1354 20.5084 17.4417C20.5084 15.748 19.1354 14.375 17.4417 14.375C15.748 14.375 14.375 15.748 14.375 17.4417C14.375 19.1354 15.748 20.5084 17.4417 20.5084Z" stroke="#A6ABC8" stroke-width="1.5" stroke-linecap="round" stroke-linejoin="round"/>
<path d="M21.0833 21.0833L20.125 20.125" stroke="#A6ABC8" stroke-width="1.5" stroke-linecap="round" stroke-linejoin="round"/>
</svg>
