<svg width="22" height="22" viewBox="0 0 22 22" fill="none" xmlns="http://www.w3.org/2000/svg">
<g id="vuesax/outline/shop">
<g id="shop">
<path id="Vector" d="M13.4756 20.8542H8.5256C3.99727 20.8542 2.07227 18.92 2.07227 14.4008V10.285C2.07227 9.90917 2.38393 9.5975 2.75977 9.5975C3.1356 9.5975 3.44727 9.90917 3.44727 10.285V14.4008C3.44727 18.15 4.77643 19.4792 8.5256 19.4792H13.4664C17.2156 19.4792 18.5448 18.15 18.5448 14.4008V10.285C18.5448 9.90917 18.8564 9.5975 19.2323 9.5975C19.6081 9.5975 19.9198 9.90917 19.9198 10.285V14.4008C19.9289 18.92 17.9948 20.8542 13.4756 20.8542Z" fill="#004A80"/>
<path id="Vector_2" d="M10.9981 11.6875C9.9898 11.6875 9.07313 11.2933 8.4223 10.5692C7.77146 9.84499 7.46896 8.90083 7.5698 7.89249L8.18396 1.76916C8.22063 1.42083 8.51396 1.14583 8.87146 1.14583H13.1523C13.5098 1.14583 13.8031 1.41166 13.8398 1.76916L14.454 7.89249C14.5548 8.90083 14.2523 9.84499 13.6015 10.5692C12.9231 11.2933 12.0065 11.6875 10.9981 11.6875ZM9.48563 2.52083L8.93563 8.02999C8.87146 8.64416 9.0548 9.22166 9.4398 9.64333C10.219 10.505 11.7773 10.505 12.5565 9.64333C12.9415 9.21249 13.1248 8.63499 13.0606 8.02999L12.5106 2.52083H9.48563Z" fill="#EC6608"/>
<path id="Vector_3" d="M16.785 11.6875C14.9241 11.6875 13.265 10.1842 13.0725 8.33249L12.4308 1.90666C12.4125 1.71416 12.4766 1.52166 12.605 1.37499C12.7333 1.22833 12.9166 1.14583 13.1183 1.14583H15.9141C18.6091 1.14583 19.865 2.27333 20.2408 5.04166L20.4975 7.58999C20.6075 8.67166 20.2775 9.69833 19.5716 10.4775C18.8658 11.2567 17.8758 11.6875 16.785 11.6875ZM13.8791 2.52083L14.4475 8.19499C14.5666 9.34083 15.63 10.3125 16.785 10.3125C17.4816 10.3125 18.105 10.0467 18.5541 9.56083C18.9941 9.075 19.1958 8.42416 19.1316 7.72749L18.875 5.20666C18.5908 3.13499 17.9216 2.52083 15.9141 2.52083H13.8791Z" fill="#EC6608"/>
<path id="Vector_4" d="M5.17075 11.6875C4.07992 11.6875 3.08992 11.2567 2.38409 10.4775C1.67825 9.69833 1.34825 8.67166 1.45825 7.58999L1.70575 5.06916C2.09075 2.27333 3.34659 1.14583 6.04159 1.14583H8.83742C9.02992 1.14583 9.21325 1.22833 9.35075 1.37499C9.48825 1.52166 9.54325 1.71416 9.52492 1.90666L8.88325 8.33249C8.69075 10.1842 7.03159 11.6875 5.17075 11.6875ZM6.04159 2.52083C4.03409 2.52083 3.36492 3.12583 3.07159 5.22499L2.82409 7.72749C2.75075 8.42416 2.96159 9.075 3.40159 9.56083C3.84159 10.0467 4.46492 10.3125 5.17075 10.3125C6.32575 10.3125 7.39825 9.34083 7.50825 8.19499L8.07659 2.52083H6.04159Z" fill="#EC6608"/>
<path id="Vector_5" d="M13.2904 20.8542H8.70703C8.3312 20.8542 8.01953 20.5425 8.01953 20.1667V17.875C8.01953 15.95 9.0737 14.8958 10.9987 14.8958C12.9237 14.8958 13.9779 15.95 13.9779 17.875V20.1667C13.9779 20.5425 13.6662 20.8542 13.2904 20.8542ZM9.39453 19.4792H12.6029V17.875C12.6029 16.72 12.1537 16.2708 10.9987 16.2708C9.8437 16.2708 9.39453 16.72 9.39453 17.875V19.4792Z" fill="#004A80"/>
</g>
</g>
</svg>
